<svg width="24" height="27" viewBox="0 0 24 27" fill="none" xmlns="http://www.w3.org/2000/svg">
<g clip-path="url(#clip0_40_5850)">
<path d="M10.2898 2.71714L1.81978 16.8571C1.64514 17.1596 1.55274 17.5024 1.55177 17.8517C1.55079 18.2009 1.64127 18.5443 1.8142 18.8477C1.98714 19.1511 2.2365 19.4039 2.53748 19.581C2.83847 19.7581 3.18058 19.8533 3.52978 19.8571H20.4698C20.819 19.8533 21.1611 19.7581 21.4621 19.581C21.7631 19.4039 22.0124 19.1511 22.1854 18.8477C22.3583 18.5443 22.4488 18.2009 22.4478 17.8517C22.4468 17.5024 22.3544 17.1596 22.1798 16.8571L13.7098 2.71714C13.5315 2.42324 13.2805 2.18026 12.981 2.01162C12.6814 1.84299 12.3435 1.75439 11.9998 1.75439C11.656 1.75439 11.3181 1.84299 11.0186 2.01162C10.7191 2.18026 10.468 2.42324 10.2898 2.71714Z" stroke="#F38712" stroke-width="2" stroke-linecap="round" stroke-linejoin="round"/>
<path d="M12 7.85718V11.8572" stroke="#F38712" stroke-width="2" stroke-linecap="round" stroke-linejoin="round"/>
<path d="M12 15.8572H12.01" stroke="#F38712" stroke-width="2" stroke-linecap="round" stroke-linejoin="round"/>
</g>
<defs>
<clipPath id="clip0_40_5850">
<rect width="24" height="25.7143" fill="white" transform="translate(0 0.642944)"/>
</clipPath>
</defs>
</svg>
