<svg width="22" height="22" viewBox="0 0 22 22" fill="none" xmlns="http://www.w3.org/2000/svg">
<path d="M18.318 12.5H14.433C13.9211 12.5021 13.4307 12.7065 13.0688 13.0686C12.707 13.4306 12.5028 13.9211 12.501 14.433V18.318C12.5007 18.5718 12.5505 18.8231 12.6475 19.0577C12.7445 19.2922 12.8868 19.5053 13.0663 19.6847C13.2457 19.8642 13.4588 20.0065 13.6933 20.1035C13.9279 20.2005 14.1792 20.2503 14.433 20.25H18.318C18.8303 20.2497 19.3216 20.0461 19.6838 19.6838C20.0461 19.3216 20.2497 18.8303 20.25 18.318V14.433C20.2503 14.1792 20.2005 13.9279 20.1035 13.6933C20.0065 13.4588 19.8642 13.2457 19.6847 13.0663C19.5053 12.8868 19.2922 12.7445 19.0577 12.6475C18.8231 12.5505 18.5718 12.5007 18.318 12.501M18.318 1.75H3.682C3.42821 1.74974 3.17687 1.79953 2.94235 1.89653C2.70783 1.99353 2.49474 2.13583 2.31529 2.31528C2.13583 2.49474 1.99353 2.70783 1.89653 2.94235C1.79953 3.17687 1.74974 3.42821 1.75 3.682V7.567C1.74961 7.82087 1.7993 8.07233 1.89624 8.30696C1.99318 8.5416 2.13546 8.7548 2.31493 8.93437C2.4944 9.11393 2.70753 9.25632 2.94212 9.35338C3.1767 9.45044 3.42813 9.50026 3.682 9.5H18.318C18.5718 9.50026 18.8231 9.45047 19.0577 9.35347C19.2922 9.25647 19.5053 9.11417 19.6847 8.93472C19.8642 8.75526 20.0065 8.54218 20.1035 8.30766C20.2005 8.07314 20.2503 7.82179 20.25 7.568V3.682C20.2503 3.42821 20.2005 3.17687 20.1035 2.94235C20.0065 2.70783 19.8642 2.49474 19.6847 2.31528C19.5053 2.13583 19.2922 1.99353 19.0577 1.89653C18.8231 1.79953 18.5718 1.74974 18.318 1.75ZM7.567 12.5H3.682C3.42813 12.4997 3.1767 12.5496 2.94212 12.6466C2.70753 12.7437 2.4944 12.8861 2.31493 13.0656C2.13546 13.2452 1.99318 13.4584 1.89624 13.693C1.7993 13.9277 1.74961 14.1791 1.75 14.433V18.318C1.74974 18.5718 1.79953 18.8231 1.89653 19.0577C1.99353 19.2922 2.13583 19.5053 2.31529 19.6847C2.49474 19.8642 2.70783 20.0065 2.94235 20.1035C3.17687 20.2005 3.42821 20.2503 3.682 20.25H7.567C7.82079 20.2503 8.07214 20.2005 8.30666 20.1035C8.54118 20.0065 8.75426 19.8642 8.93372 19.6847C9.11317 19.5053 9.25547 19.2922 9.35247 19.0577C9.44947 18.8231 9.49927 18.5718 9.499 18.318V14.433C9.49716 13.9211 9.29305 13.4306 8.93116 13.0686C8.56926 12.7065 8.07893 12.5021 7.567 12.5Z" stroke="white" stroke-width="2" stroke-linecap="round" stroke-linejoin="round"/>
</svg>
