<svg width="22" height="22" viewBox="0 0 22 22" fill="none" xmlns="http://www.w3.org/2000/svg">
<path fill-rule="evenodd" clip-rule="evenodd" d="M15.8749 2.75C15.3476 2.74973 14.8276 2.87301 14.3566 3.10994C13.8855 3.34687 13.4765 3.69088 13.1624 4.11437C12.8483 4.53786 12.6378 5.02905 12.5477 5.54858C12.4577 6.0681 12.4906 6.6015 12.6439 7.106L12.8389 7.751L12.3634 8.228L2.98236 17.6075C2.79539 17.7945 2.69034 18.0481 2.69034 18.3125C2.69034 18.5769 2.79539 18.8305 2.98236 19.0175C3.16934 19.2045 3.42294 19.3095 3.68736 19.3095C3.95179 19.3095 4.20539 19.2045 4.39236 19.0175L13.7719 9.635L14.2489 9.158L14.8939 9.353C15.5205 9.54389 16.1892 9.54826 16.8183 9.3656C17.4475 9.18294 18.0098 8.82113 18.4368 8.32431C18.8638 7.8275 19.137 7.21715 19.223 6.56772C19.3091 5.9183 19.2043 5.25787 18.9214 4.667L16.6714 6.9185C16.5676 7.026 16.4435 7.11176 16.3063 7.17078C16.1691 7.22981 16.0215 7.26091 15.8721 7.26228C15.7227 7.26365 15.5746 7.23525 15.4363 7.17875C15.298 7.12225 15.1724 7.03878 15.0667 6.9332C14.961 6.82762 14.8774 6.70205 14.8208 6.56382C14.7641 6.42559 14.7356 6.27746 14.7368 6.12808C14.7381 5.97871 14.769 5.83107 14.8279 5.69379C14.8868 5.55651 14.9725 5.43233 15.0799 5.3285L17.3299 3.0785C16.8757 2.86085 16.3785 2.74957 15.8749 2.75ZM10.2499 6.125C10.25 4.97165 10.6046 3.8462 11.2657 2.90114C11.9268 1.95608 12.8625 1.23708 13.9459 0.841571C15.0293 0.446059 16.2081 0.393145 17.3226 0.689998C18.4371 0.986852 19.4334 1.61912 20.1766 2.50115C20.9197 3.38318 21.3738 4.47233 21.4772 5.62103C21.5806 6.76974 21.3285 7.92248 20.7548 8.92307C20.1812 9.92366 19.3139 10.7237 18.2703 11.2149C17.2268 11.7061 16.0575 11.8646 14.9209 11.669L14.0914 12.5L15.4999 13.91L16.2049 13.205L16.9999 12.41L17.7949 13.205L20.6074 16.0175C20.9164 16.3172 21.1627 16.6753 21.3319 17.0711C21.5012 17.4669 21.5901 17.8923 21.5934 18.3228C21.5967 18.7532 21.5143 19.18 21.3511 19.5783C21.1879 19.9766 20.9471 20.3385 20.6427 20.6429C20.3384 20.9473 19.9765 21.1881 19.5782 21.3513C19.1799 21.5145 18.7531 21.5968 18.3226 21.5935C17.8922 21.5902 17.4667 21.5014 17.071 21.3321C16.6752 21.1628 16.317 20.9165 16.0174 20.6075L13.2049 17.795L12.4099 17L13.2049 16.205L13.9099 15.5L12.4999 14.09L5.98236 20.6075C5.68268 20.9165 5.32454 21.1628 4.92877 21.3321C4.533 21.5014 4.10752 21.5902 3.67708 21.5935C3.24664 21.5968 2.81985 21.5145 2.42154 21.3513C2.02323 21.1881 1.66136 20.9473 1.35698 20.6429C1.05261 20.3385 0.811812 19.9766 0.648608 19.5783C0.485404 19.18 0.403052 18.7532 0.406345 18.3228C0.409638 17.8923 0.498509 17.4669 0.667787 17.0711C0.837066 16.6753 1.08337 16.3172 1.39236 16.0175L7.90836 9.5L4.24986 5.84L3.32436 6.7655L2.56386 5.624L1.06386 3.374L0.552364 2.606L1.20486 1.955L1.95486 1.205L2.60586 0.552499L3.37386 1.064L5.62386 2.564L6.76536 3.3245L5.84136 4.25L9.49986 7.91L10.3309 7.079C10.2785 6.76367 10.2514 6.44465 10.2499 6.125ZM16.9999 15.59L19.0174 17.6075C19.2043 17.7945 19.3094 18.0481 19.3094 18.3125C19.3094 18.5769 19.2043 18.8305 19.0174 19.0175C18.8304 19.2045 18.5768 19.3095 18.3124 19.3095C18.0479 19.3095 17.7943 19.2045 17.6074 19.0175L15.5914 17L16.9999 15.59Z" fill="#F38712"/>
</svg>
