<svg width="24" height="24" viewBox="0 0 24 24" fill="none" xmlns="http://www.w3.org/2000/svg">
<path d="M8.356 5H7.01L5 13H6.028L6.492 11.125H8.808L9.26 13H10.322L8.356 5ZM6.627 10.322L7.644 5.95H7.689L8.673 10.323L6.627 10.322ZM11.238 13V5H12.238V13H11.238ZM11.425 14H4V4H14V8.78C15.1834 8.01531 16.6152 7.73397 18 7.994V6H16V4C15.9984 3.47005 15.7872 2.96227 15.4125 2.58753C15.0377 2.2128 14.5299 2.00158 14 2H12V0H10V2H8V0H6V2H4C3.47005 2.00158 2.96227 2.2128 2.58753 2.58753C2.2128 2.96227 2.00158 3.47005 2 4V6H0V8H2V10H0V12H2V14C2.00158 14.5299 2.2128 15.0377 2.58753 15.4125C2.96227 15.7872 3.47005 15.9984 4 16H6V18H8V16H10V18H12V16.008C11.6841 15.3806 11.489 14.6995 11.425 14ZM13.5 13.5C13.5 12.8078 13.7053 12.1311 14.0899 11.5555C14.4744 10.9799 15.0211 10.5313 15.6606 10.2664C16.3001 10.0015 17.0039 9.9322 17.6828 10.0673C18.3617 10.2023 18.9854 10.5356 19.4749 11.0251C19.9644 11.5146 20.2977 12.1383 20.4327 12.8172C20.5678 13.4961 20.4985 14.1999 20.2336 14.8394C19.9687 15.4789 19.5201 16.0256 18.9445 16.4101C18.3689 16.7947 17.6922 17 17 17C16.0717 17 15.1815 16.6313 14.5251 15.9749C13.8687 15.3185 13.5 14.4283 13.5 13.5ZM17 19C14.664 19 10 20.173 10 22.5V24H24V22.5C24 20.172 19.336 19 17 19Z" fill="#F38712"/>
</svg>
