<svg width="25" height="24" viewBox="0 0 25 24" fill="none" xmlns="http://www.w3.org/2000/svg">
<g clip-path="url(#clip0_40_8614)">
<path d="M12.9487 11C15.1579 11 16.9487 9.20914 16.9487 7C16.9487 4.79086 15.1579 3 12.9487 3C10.7396 3 8.94873 4.79086 8.94873 7C8.94873 9.20914 10.7396 11 12.9487 11Z" stroke="white" stroke-width="1.5" stroke-linecap="round" stroke-linejoin="round"/>
<path d="M6.94873 21V19C6.94873 17.9391 7.37016 16.9217 8.1203 16.1716C8.87045 15.4214 9.88786 15 10.9487 15H14.9487C16.0096 15 17.027 15.4214 17.7772 16.1716C18.5273 16.9217 18.9487 17.9391 18.9487 19V21" stroke="white" stroke-width="1.5" stroke-linecap="round" stroke-linejoin="round"/>
</g>
<defs>
<clipPath id="clip0_40_8614">
<rect width="24" height="24" fill="white" transform="translate(0.94873)"/>
</clipPath>
</defs>
</svg>
